STARTFONT 2.1
COMMENT Recovered from arc.ast's:MUSC10 AST (MIT CADR AST source recovered from ARC!!!)
FONT MIT-CADR-MUSC10
SIZE 17 72 72
FONTBOUNDINGBOX 16 17 0 -17
STARTPROPERTIES 2
FONT_ASCENT 0
FONT_DESCENT 17
ENDPROPERTIES
CHARS 114
STARTCHAR C0001
ENCODING -1 1
SWIDTH 471 0
DWIDTH 8 0
BBX 16 17 0 -17
BITMAP
0000
0600
1C00
7000
FE00
FE00
0000
FE00
FE00
0000
0000
0000
0000
0000
0000
0000
0000
ENDCHAR
STARTCHAR C0003
ENCODING -1 3
SWIDTH 471 0
DWIDTH 8 0
BBX 16 17 0 -17
BITMAP
0000
0000
3800
6400
C200
C200
6400
3800
6400
C200
C200
6400
3800
0000
0000
0000
0000
ENDCHAR
STARTCHAR C0005
ENCODING -1 5
SWIDTH 471 0
DWIDTH 8 0
BBX 16 17 0 -17
BITMAP
FF00
8100
8100
8100
8100
9900
BD00
BD00
9900
8100
8100
8100
8100
FF00
0000
0000
0000
ENDCHAR
STARTCHAR C0006
ENCODING -1 6
SWIDTH 471 0
DWIDTH 8 0
BBX 16 17 0 -17
BITMAP
0000
3800
6400
C200
CE00
DA00
DA00
DA00
CC00
6000
3C00
0000
0000
0000
0000
0000
0000
ENDCHAR
STARTCHAR C0007
ENCODING -1 7
SWIDTH 471 0
DWIDTH 8 0
BBX 16 17 0 -17
BITMAP
0000
0000
0000
1800
3C00
3C00
1800
0000
0000
0000
0000
0000
0000
0000
0000
0000
0000
ENDCHAR
STARTCHAR C000A
ENCODING -1 10
SWIDTH 471 0
DWIDTH 8 0
BBX 16 17 0 -17
BITMAP
0000
3800
3800
3800
3800
3800
3800
3800
3800
0000
3800
3800
3800
0000
0000
0000
0000
ENDCHAR
STARTCHAR C000B
ENCODING -1 11
SWIDTH 647 0
DWIDTH 11 0
BBX 16 17 0 -17
BITMAP
0E00
1F00
3180
3180
3180
1B00
1B00
1100
3180
2080
7FC0
7FC0
0000
0000
0000
0000
0000
ENDCHAR
STARTCHAR C000D
ENCODING -1 13
SWIDTH 471 0
DWIDTH 8 0
BBX 16 17 0 -17
BITMAP
0000
0000
0000
0000
0000
0000
0000
0000
0000
0000
0000
0000
0000
0000
0000
0000
0000
ENDCHAR
STARTCHAR C000E
ENCODING -1 14
SWIDTH 471 0
DWIDTH 8 0
BBX 16 17 0 -17
BITMAP
0000
0000
0000
0C00
FE00
FE00
3000
FE00
FE00
6000
0000
0000
0000
0000
0000
0000
0000
ENDCHAR
STARTCHAR C000F
ENCODING -1 15
SWIDTH 471 0
DWIDTH 8 0
BBX 16 17 0 -17
BITMAP
0000
6600
6600
6600
6600
6600
0000
0000
0000
0000
0000
0000
0000
0000
0000
0000
0000
ENDCHAR
STARTCHAR C0010
ENCODING -1 16
SWIDTH 824 0
DWIDTH 14 0
BBX 16 17 0 -17
BITMAP
0000
0008
0010
0020
0260
0360
7FE0
7FE0
0360
0260
0020
0010
0008
0000
0000
0000
0000
ENDCHAR
STARTCHAR C0011
ENCODING -1 17
SWIDTH 412 0
DWIDTH 7 0
BBX 16 17 0 -17
BITMAP
0000
0000
3000
3000
3000
3000
3000
3000
0000
3000
3000
0000
0000
0000
0000
0000
0000
ENDCHAR
STARTCHAR C0012
ENCODING -1 18
SWIDTH 471 0
DWIDTH 8 0
BBX 16 17 0 -17
BITMAP
0000
0000
0000
3C00
7E00
6600
6600
7E00
3C00
0000
0000
0000
0000
0000
0000
0000
0000
ENDCHAR
STARTCHAR C0013
ENCODING -1 19
SWIDTH 941 0
DWIDTH 16 0
BBX 16 17 0 -17
BITMAP
0000
0000
0000
6000
6E00
DB00
0C00
0600
0300
1B00
0E00
0000
0000
0000
0000
0000
0000
ENDCHAR
STARTCHAR C0014
ENCODING -1 20
SWIDTH 941 0
DWIDTH 16 0
BBX 16 17 0 -17
BITMAP
0FE0
1FF0
1830
1830
1830
1830
1830
1830
3838
5FF4
8FE2
F55E
2AA8
1FF0
0000
0000
0000
ENDCHAR
STARTCHAR C0015
ENCODING -1 21
SWIDTH 588 0
DWIDTH 10 0
BBX 16 17 0 -17
BITMAP
0000
0000
3F80
3F80
0000
0000
0000
0000
0000
0000
0000
0000
0000
0000
0000
0000
0000
ENDCHAR
STARTCHAR C0016
ENCODING -1 22
SWIDTH 471 0
DWIDTH 8 0
BBX 16 17 0 -17
BITMAP
0000
4400
AC00
A800
5800
1000
3000
6800
5400
D400
8800
0000
0000
0000
0000
0000
0000
ENDCHAR
STARTCHAR C0017
ENCODING -1 23
SWIDTH 471 0
DWIDTH 8 0
BBX 16 17 0 -17
BITMAP
0000
0000
C600
C600
6C00
6C00
3800
3800
1000
0000
0000
0000
0000
0000
0000
0000
0000
ENDCHAR
STARTCHAR C0018
ENCODING -1 24
SWIDTH 471 0
DWIDTH 8 0
BBX 16 17 0 -17
BITMAP
0000
0000
1000
3800
3800
6C00
6C00
C600
C600
0000
0000
0000
0000
0000
0000
0000
0000
ENDCHAR
STARTCHAR C0019
ENCODING -1 25
SWIDTH 941 0
DWIDTH 16 0
BBX 16 17 0 -17
BITMAP
0000
0000
F030
FC38
7FFC
3FFE
3FFF
3FFE
7FFC
FC38
F030
0000
0000
0000
0000
0000
0000
ENDCHAR
STARTCHAR C001A
ENCODING -1 26
SWIDTH 471 0
DWIDTH 8 0
BBX 16 17 0 -17
BITMAP
0000
C000
7000
1C00
FE00
FE00
0000
FE00
FE00
0000
0000
0000
0000
0000
0000
0000
0000
ENDCHAR
STARTCHAR C001B
ENCODING -1 27
SWIDTH 471 0
DWIDTH 8 0
BBX 16 17 0 -17
BITMAP
3000
7800
FC00
B400
F800
7C00
B400
FC00
7800
3000
3000
0000
0000
0000
0000
0000
0000
ENDCHAR
STARTCHAR C001C
ENCODING -1 28
SWIDTH 471 0
DWIDTH 8 0
BBX 16 17 0 -17
BITMAP
0000
3000
6800
6800
3000
3000
6A00
C400
C400
E600
7800
0000
0000
0000
0000
0000
0000
ENDCHAR
STARTCHAR C001D
ENCODING -1 29
SWIDTH 941 0
DWIDTH 16 0
BBX 16 17 0 -17
BITMAP
0000
03C0
0620
0620
0300
03C0
0660
0660
03C0
00C0
0460
0460
03C0
0000
0000
0000
0000
ENDCHAR
STARTCHAR C001E
ENCODING -1 30
SWIDTH 471 0
DWIDTH 8 0
BBX 16 17 0 -17
BITMAP
0000
3800
3800
3800
3800
3800
3800
3800
3800
0000
3800
3800
3800
0000
0000
0000
0000
ENDCHAR
STARTCHAR C001F
ENCODING -1 31
SWIDTH 941 0
DWIDTH 16 0
BBX 16 17 0 -17
BITMAP
FFFC
FFFC
FFFC
FFFC
FFFC
FFFC
FFFC
FFFC
FFFC
FFFC
FFFC
FFFC
FFFC
0000
0000
0000
0000
ENDCHAR
STARTCHAR C0020
ENCODING -1 32
SWIDTH 412 0
DWIDTH 7 0
BBX 16 17 0 -17
BITMAP
0000
0000
0000
0000
0000
0000
0000
0000
0000
0000
0000
0000
0000
0000
0000
0000
0000
ENDCHAR
STARTCHAR C0021
ENCODING -1 33
SWIDTH 588 0
DWIDTH 10 0
BBX 16 17 0 -17
BITMAP
0000
1000
3800
7C00
EE00
6C00
6C00
6C00
6C00
6C00
6C00
6C00
4400
0000
0000
0000
0000
ENDCHAR
STARTCHAR C0022
ENCODING -1 34
SWIDTH 941 0
DWIDTH 16 0
BBX 16 17 0 -17
BITMAP
0700
1900
2200
4FFC
C804
8FF8
9840
EF80
8880
CF00
7E00
0000
0000
0000
0000
0000
0000
ENDCHAR
STARTCHAR C0023
ENCODING -1 35
SWIDTH 471 0
DWIDTH 8 0
BBX 16 17 0 -17
BITMAP
0000
0900
1B00
1200
7F00
2400
FE00
4800
D800
9000
0000
0000
0000
0000
0000
0000
0000
ENDCHAR
STARTCHAR C0024
ENCODING -1 36
SWIDTH 588 0
DWIDTH 10 0
BBX 16 17 0 -17
BITMAP
0000
1400
2200
4100
C180
C180
C180
C180
C180
C180
4100
2200
1400
0000
0000
0000
0000
ENDCHAR
STARTCHAR C0025
ENCODING -1 37
SWIDTH 529 0
DWIDTH 9 0
BBX 16 17 0 -17
BITMAP
0000
0600
0C00
1800
3C00
7600
E600
F600
3C00
1800
0C00
0000
0000
0000
0000
0000
0000
ENDCHAR
STARTCHAR C0026
ENCODING -1 38
SWIDTH 59 0
DWIDTH 1 0
BBX 16 17 0 -17
BITMAP
7FC0
8060
8060
8060
8060
8060
8060
8060
8060
8060
8060
FFE0
7FC0
0000
0000
0000
0000
ENDCHAR
STARTCHAR C0027
ENCODING -1 39
SWIDTH 353 0
DWIDTH 6 0
BBX 16 17 0 -17
BITMAP
3000
3000
3000
2000
0000
0000
0000
0000
0000
0000
0000
0000
0000
0000
0000
0000
0000
ENDCHAR
STARTCHAR C0028
ENCODING -1 40
SWIDTH 353 0
DWIDTH 6 0
BBX 16 17 0 -17
BITMAP
0000
0800
1000
2000
6000
6000
6000
6000
6000
6000
2000
1000
0800
0000
0000
0000
0000
ENDCHAR
STARTCHAR C0029
ENCODING -1 41
SWIDTH 353 0
DWIDTH 6 0
BBX 16 17 0 -17
BITMAP
0000
4000
2000
1000
1800
1800
1800
1800
1800
1800
1000
2000
4000
0000
0000
0000
0000
ENDCHAR
STARTCHAR C002A
ENCODING -1 42
SWIDTH 471 0
DWIDTH 8 0
BBX 16 17 0 -17
BITMAP
0000
0000
0000
1800
5A00
7E00
3C00
7E00
5A00
1800
0000
0000
0000
0000
0000
0000
0000
ENDCHAR
STARTCHAR C002B
ENCODING -1 43
SWIDTH 471 0
DWIDTH 8 0
BBX 16 17 0 -17
BITMAP
0000
0000
0000
1800
1800
7E00
7E00
1800
1800
0000
0000
0000
0000
0000
0000
0000
0000
ENDCHAR
STARTCHAR C002C
ENCODING -1 44
SWIDTH 471 0
DWIDTH 8 0
BBX 16 17 0 -17
BITMAP
0000
0000
0000
0000
0000
0000
0000
0000
0000
1C00
1C00
0C00
1800
3000
0000
0000
0000
ENDCHAR
STARTCHAR C002D
ENCODING -1 45
SWIDTH 471 0
DWIDTH 8 0
BBX 16 17 0 -17
BITMAP
0000
0000
0000
0000
0000
7E00
7E00
0000
0000
0000
0000
0000
0000
0000
0000
0000
0000
ENDCHAR
STARTCHAR C002E
ENCODING -1 46
SWIDTH 353 0
DWIDTH 6 0
BBX 16 17 0 -17
BITMAP
0000
0000
0000
0000
0000
0000
0000
0000
7000
7000
7000
0000
0000
0000
0000
0000
0000
ENDCHAR
STARTCHAR C002F
ENCODING -1 47
SWIDTH 471 0
DWIDTH 8 0
BBX 16 17 0 -17
BITMAP
0000
0600
0600
0C00
0C00
1800
1800
3000
3000
6000
6000
C000
C000
0000
0000
0000
0000
ENDCHAR
STARTCHAR C0030
ENCODING -1 48
SWIDTH 471 0
DWIDTH 8 0
BBX 16 17 0 -17
BITMAP
0000
0000
0000
3800
7C00
E600
C600
C600
C600
CE00
7C00
3800
0000
0000
0000
0000
0000
ENDCHAR
STARTCHAR C0031
ENCODING -1 49
SWIDTH 471 0
DWIDTH 8 0
BBX 16 17 0 -17
BITMAP
0000
0000
0000
0800
1800
3800
1800
1800
1800
1800
3C00
3C00
0000
0000
0000
0000
0000
ENDCHAR
STARTCHAR C0032
ENCODING -1 50
SWIDTH 471 0
DWIDTH 8 0
BBX 16 17 0 -17
BITMAP
0000
0000
0000
7800
EC00
4E00
0E00
1C00
3800
7200
FE00
CE00
0000
0000
0000
0000
0000
ENDCHAR
STARTCHAR C0033
ENCODING -1 51
SWIDTH 471 0
DWIDTH 8 0
BBX 16 17 0 -17
BITMAP
0000
0000
0000
7C00
EE00
4600
0C00
1C00
C600
C600
7C00
3800
0000
0000
0000
0000
0000
ENDCHAR
STARTCHAR C0034
ENCODING -1 52
SWIDTH 471 0
DWIDTH 8 0
BBX 16 17 0 -17
BITMAP
0000
0000
0000
0C00
1C00
3800
7200
E600
C600
FE00
0600
0600
0000
0000
0000
0000
0000
ENDCHAR
STARTCHAR C0035
ENCODING -1 53
SWIDTH 471 0
DWIDTH 8 0
BBX 16 17 0 -17
BITMAP
0000
0000
0000
FC00
FC00
C000
F800
7C00
0600
C600
FC00
7800
0000
0000
0000
0000
0000
ENDCHAR
STARTCHAR C0036
ENCODING -1 54
SWIDTH 471 0
DWIDTH 8 0
BBX 16 17 0 -17
BITMAP
0000
0000
0000
3800
6C00
C000
DC00
FE00
E200
C600
7C00
3800
0000
0000
0000
0000
0000
ENDCHAR
STARTCHAR C0037
ENCODING -1 55
SWIDTH 471 0
DWIDTH 8 0
BBX 16 17 0 -17
BITMAP
0000
0000
0000
FE00
FE00
0C00
1C00
1800
3800
3000
7000
6000
0000
0000
0000
0000
0000
ENDCHAR
STARTCHAR C0038
ENCODING -1 56
SWIDTH 471 0
DWIDTH 8 0
BBX 16 17 0 -17
BITMAP
0000
0000
0000
7C00
E600
C600
4C00
3800
6400
C600
CE00
7C00
0000
0000
0000
0000
0000
ENDCHAR
STARTCHAR C0039
ENCODING -1 57
SWIDTH 471 0
DWIDTH 8 0
BBX 16 17 0 -17
BITMAP
0000
0000
0000
3800
6C00
C600
C600
7E00
3600
0600
6C00
3800
0000
0000
0000
0000
0000
ENDCHAR
STARTCHAR C003A
ENCODING -1 58
SWIDTH 471 0
DWIDTH 8 0
BBX 16 17 0 -17
BITMAP
0000
0000
0000
3800
3800
3800
0000
0000
3800
3800
3800
0000
0000
0000
0000
0000
0000
ENDCHAR
STARTCHAR C003B
ENCODING -1 59
SWIDTH 471 0
DWIDTH 8 0
BBX 16 17 0 -17
BITMAP
0000
0000
0000
0000
3800
3800
0000
0000
0000
3800
3800
0800
1800
3000
0000
0000
0000
ENDCHAR
STARTCHAR C003C
ENCODING -1 60
SWIDTH 471 0
DWIDTH 8 0
BBX 16 17 0 -17
BITMAP
0000
0000
0000
0C00
1800
3000
6000
C000
6000
3000
1800
0C00
0000
0000
0000
0000
0000
ENDCHAR
STARTCHAR C003D
ENCODING -1 61
SWIDTH 471 0
DWIDTH 8 0
BBX 16 17 0 -17
BITMAP
0000
0000
0000
0000
7E00
7E00
0000
0000
7E00
7E00
0000
0000
0000
0000
0000
0000
0000
ENDCHAR
STARTCHAR C003E
ENCODING -1 62
SWIDTH 471 0
DWIDTH 8 0
BBX 16 17 0 -17
BITMAP
0000
0000
0000
C000
6000
3000
1800
0C00
1800
3000
6000
C000
0000
0000
0000
0000
0000
ENDCHAR
STARTCHAR C003F
ENCODING -1 63
SWIDTH 471 0
DWIDTH 8 0
BBX 16 17 0 -17
BITMAP
0000
0000
0000
0000
0000
0000
0800
FC00
FE00
0300
FE00
FC00
0800
0000
0000
0000
0000
ENDCHAR
STARTCHAR C0040
ENCODING -1 64
SWIDTH 941 0
DWIDTH 16 0
BBX 16 17 0 -17
BITMAP
07E0
1810
2EE8
7114
6C6A
CC66
CD66
C102
D832
CFE2
C7C6
600C
3FF8
0FE0
0000
0000
0000
ENDCHAR
STARTCHAR C0041
ENCODING -1 65
SWIDTH 941 0
DWIDTH 16 0
BBX 16 17 0 -17
BITMAP
FFFF
0000
0000
0000
FFFF
0000
0000
0000
FFFF
0000
0000
0000
FFFF
0000
0000
0000
FFFF
ENDCHAR
STARTCHAR C0043
ENCODING -1 67
SWIDTH 647 0
DWIDTH 11 0
BBX 16 17 0 -17
BITMAP
0000
0E00
1F00
1F00
3C80
3C80
3980
3980
3380
1780
0F00
0F00
1E00
3E00
3C00
7C00
7C00
ENDCHAR
STARTCHAR C0044
ENCODING -1 68
SWIDTH 588 0
DWIDTH 10 0
BBX 16 17 0 -17
BITMAP
F780
EFC0
EE60
DE70
DA70
D2F0
C2F0
63E0
37C0
1F80
0100
1900
3D00
3D00
3900
3300
1E00
ENDCHAR
STARTCHAR C0046
ENCODING -1 70
SWIDTH 941 0
DWIDTH 16 0
BBX 16 17 0 -17
BITMAP
8000
C000
E000
7000
3800
1C00
0C00
0C00
0C00
0800
1000
0000
0000
0000
0000
0000
0000
ENDCHAR
STARTCHAR C0047
ENCODING -1 71
SWIDTH 941 0
DWIDTH 16 0
BBX 16 17 0 -17
BITMAP
0000
0000
0000
0000
0000
1000
0800
0C00
0C00
1C00
3800
7000
E000
C000
8000
0000
0000
ENDCHAR
STARTCHAR C0049
ENCODING -1 73
SWIDTH 294 0
DWIDTH 5 0
BBX 16 17 0 -17
BITMAP
C000
C000
C000
0000
0000
0000
0000
0000
0000
0000
0000
0000
0000
0000
0000
0000
0000
ENDCHAR
STARTCHAR C004A
ENCODING -1 74
SWIDTH 412 0
DWIDTH 7 0
BBX 16 17 0 -17
BITMAP
0000
0000
C000
F000
FC00
FC00
3C00
0C00
0000
0000
0000
0000
0000
0000
0000
0000
0000
ENDCHAR
STARTCHAR C004B
ENCODING -1 75
SWIDTH 647 0
DWIDTH 11 0
BBX 16 17 0 -17
BITMAP
0000
0000
0C00
3C00
FC00
FC00
F000
C000
0000
0000
0000
0000
0000
0000
0000
0000
0000
ENDCHAR
STARTCHAR C004D
ENCODING -1 77
SWIDTH 941 0
DWIDTH 16 0
BBX 16 17 0 -17
BITMAP
8000
8000
8000
8000
F000
D800
9800
B000
C000
8000
0000
0000
0000
0000
0000
0000
0000
ENDCHAR
STARTCHAR C004E
ENCODING -1 78
SWIDTH 941 0
DWIDTH 16 0
BBX 16 17 0 -17
BITMAP
0000
8000
8000
B000
F000
D000
9000
B000
F000
D000
1000
1000
0000
0000
0000
0000
0000
ENDCHAR
STARTCHAR C004F
ENCODING -1 79
SWIDTH 941 0
DWIDTH 16 0
BBX 16 17 0 -17
BITMAP
0000
0000
1000
5800
F800
D000
5000
5800
F800
D000
4000
0000
0000
0000
0000
0000
0000
ENDCHAR
STARTCHAR C0050
ENCODING -1 80
SWIDTH 941 0
DWIDTH 16 0
BBX 16 17 0 -17
BITMAP
0000
0000
0000
0000
CC00
7800
3000
7800
CC00
0000
0000
0000
0000
0000
0000
0000
0000
ENDCHAR
STARTCHAR C0053
ENCODING -1 83
SWIDTH 471 0
DWIDTH 8 0
BBX 16 17 0 -17
BITMAP
8000
8000
8000
8000
8000
8000
8000
8000
8000
8000
8000
8000
8000
8000
8000
0000
0000
ENDCHAR
STARTCHAR C0054
ENCODING -1 84
SWIDTH 941 0
DWIDTH 16 0
BBX 16 17 0 -17
BITMAP
FFFF
0000
0800
0800
FFFF
0800
0800
0800
FFFF
0000
0000
0000
FFFF
0000
0000
0000
FFFF
ENDCHAR
STARTCHAR C0056
ENCODING -1 86
SWIDTH 941 0
DWIDTH 16 0
BBX 16 17 0 -17
BITMAP
3E00
7F30
E7B0
F380
F380
6380
03B0
0330
0700
0600
0C00
1800
3000
4000
0000
0000
0000
ENDCHAR
STARTCHAR C0057
ENCODING -1 87
SWIDTH 941 0
DWIDTH 16 0
BBX 16 17 0 -17
BITMAP
0000
0000
0000
0000
7C00
EE00
E700
7700
3E00
0000
0000
0000
0000
0000
0000
0000
0000
ENDCHAR
STARTCHAR C0058
ENCODING -1 88
SWIDTH 529 0
DWIDTH 9 0
BBX 16 17 0 -17
BITMAP
0000
F700
6600
3400
3C00
1800
1800
3C00
2C00
6600
EF00
0000
0000
0000
0000
0000
0000
ENDCHAR
STARTCHAR C0059
ENCODING -1 89
SWIDTH 647 0
DWIDTH 11 0
BBX 16 17 0 -17
BITMAP
0000
F3C0
6180
3300
3300
1E00
1E00
0C00
0C00
0C00
1E00
0000
0000
0000
0000
0000
0000
ENDCHAR
STARTCHAR C005A
ENCODING -1 90
SWIDTH 647 0
DWIDTH 11 0
BBX 16 17 0 -17
BITMAP
0000
7F80
7F80
4300
0600
0C00
1800
3000
6040
FFC0
FF80
0000
0000
0000
0000
0000
0000
ENDCHAR
STARTCHAR C005B
ENCODING -1 91
SWIDTH 235 0
DWIDTH 4 0
BBX 16 17 0 -17
BITMAP
F000
C000
C000
C000
C000
C000
C000
C000
C000
C000
C000
C000
F000
0000
0000
0000
0000
ENDCHAR
STARTCHAR C005C
ENCODING -1 92
SWIDTH 471 0
DWIDTH 8 0
BBX 16 17 0 -17
BITMAP
0000
C000
6000
6000
3000
3000
1800
1800
0C00
0C00
0600
0600
0300
0000
0000
0000
0000
ENDCHAR
STARTCHAR C005D
ENCODING -1 93
SWIDTH 294 0
DWIDTH 5 0
BBX 16 17 0 -17
BITMAP
F000
3000
3000
3000
3000
3000
3000
3000
3000
3000
3000
3000
F000
0000
0000
0000
0000
ENDCHAR
STARTCHAR C005E
ENCODING -1 94
SWIDTH 471 0
DWIDTH 8 0
BBX 16 17 0 -17
BITMAP
0000
1800
3C00
7E00
5A00
1800
1800
1800
1800
0000
0000
0000
0000
0000
0000
0000
0000
ENDCHAR
STARTCHAR C005F
ENCODING -1 95
SWIDTH 471 0
DWIDTH 8 0
BBX 16 17 0 -17
BITMAP
0000
0000
0000
3000
6000
FF00
FF00
6000
3000
0000
0000
0000
0000
0000
0000
0000
0000
ENDCHAR
STARTCHAR C0061
ENCODING -1 97
SWIDTH 353 0
DWIDTH 6 0
BBX 16 17 0 -17
BITMAP
0000
0000
0000
0000
3000
5800
1800
7800
9800
9800
7C00
0000
0000
0000
0000
0000
0000
ENDCHAR
STARTCHAR C0062
ENCODING -1 98
SWIDTH 471 0
DWIDTH 8 0
BBX 16 17 0 -17
BITMAP
6000
E000
6000
6000
7C00
6600
6600
6600
6600
6400
F800
0000
0000
0000
0000
0000
0000
ENDCHAR
STARTCHAR C0063
ENCODING -1 99
SWIDTH 412 0
DWIDTH 7 0
BBX 16 17 0 -17
BITMAP
0000
0000
0000
0000
3800
6400
C000
C000
C000
6400
3800
0000
0000
0000
0000
0000
0000
ENDCHAR
STARTCHAR C0064
ENCODING -1 100
SWIDTH 412 0
DWIDTH 7 0
BBX 16 17 0 -17
BITMAP
0C00
1C00
0C00
0C00
7C00
CC00
CC00
CC00
CC00
4C00
3E00
0000
0000
0000
0000
0000
0000
ENDCHAR
STARTCHAR C0065
ENCODING -1 101
SWIDTH 412 0
DWIDTH 7 0
BBX 16 17 0 -17
BITMAP
0000
0000
0000
0000
3800
4400
FC00
C000
C000
6400
3800
0000
0000
0000
0000
0000
0000
ENDCHAR
STARTCHAR C0066
ENCODING -1 102
SWIDTH 294 0
DWIDTH 5 0
BBX 16 17 0 -17
BITMAP
3000
6800
6000
6000
F000
6000
6000
6000
6000
6000
F000
0000
0000
0000
0000
0000
0000
ENDCHAR
STARTCHAR C0067
ENCODING -1 103
SWIDTH 471 0
DWIDTH 8 0
BBX 16 17 0 -17
BITMAP
0000
0000
0000
0000
7A00
CC00
CC00
7800
C000
FC00
7E00
C200
E200
7C00
0000
0000
0000
ENDCHAR
STARTCHAR C0068
ENCODING -1 104
SWIDTH 471 0
DWIDTH 8 0
BBX 16 17 0 -17
BITMAP
6000
E000
6000
6000
6C00
7600
6200
6200
6200
6200
F700
0000
0000
0000
0000
0000
0000
ENDCHAR
STARTCHAR C0069
ENCODING -1 105
SWIDTH 353 0
DWIDTH 6 0
BBX 16 17 0 -17
BITMAP
0000
3000
3000
0000
3000
7000
3000
3000
3000
3000
7800
0000
0000
0000
0000
0000
0000
ENDCHAR
STARTCHAR C006A
ENCODING -1 106
SWIDTH 353 0
DWIDTH 6 0
BBX 16 17 0 -17
BITMAP
0000
1800
1800
0000
1800
3800
1800
1800
1800
1800
1800
D800
D800
7000
0000
0000
0000
ENDCHAR
STARTCHAR C006B
ENCODING -1 107
SWIDTH 471 0
DWIDTH 8 0
BBX 16 17 0 -17
BITMAP
6000
E000
6000
6000
6600
6C00
7800
7800
6C00
6600
F300
0000
0000
0000
0000
0000
0000
ENDCHAR
STARTCHAR C006C
ENCODING -1 108
SWIDTH 235 0
DWIDTH 4 0
BBX 16 17 0 -17
BITMAP
6000
E000
6000
6000
6000
6000
6000
6000
6000
6000
F000
0000
0000
0000
0000
0000
0000
ENDCHAR
STARTCHAR C006D
ENCODING -1 109
SWIDTH 706 0
DWIDTH 12 0
BBX 16 17 0 -17
BITMAP
0000
0000
0000
0000
DDC0
6660
6660
6660
6660
6660
F770
0000
0000
0000
0000
0000
0000
ENDCHAR
STARTCHAR C006E
ENCODING -1 110
SWIDTH 471 0
DWIDTH 8 0
BBX 16 17 0 -17
BITMAP
0000
0000
0000
0000
DC00
6600
6600
6600
6600
6600
F700
0000
0000
0000
0000
0000
0000
ENDCHAR
STARTCHAR C006F
ENCODING -1 111
SWIDTH 412 0
DWIDTH 7 0
BBX 16 17 0 -17
BITMAP
0000
0000
0000
0000
3800
6400
C200
C200
C200
6400
3800
0000
0000
0000
0000
0000
0000
ENDCHAR
STARTCHAR C0070
ENCODING -1 112
SWIDTH 471 0
DWIDTH 8 0
BBX 16 17 0 -17
BITMAP
0000
0000
0000
0000
5800
E400
6600
6600
6600
6600
7C00
6000
6000
F000
0000
0000
0000
ENDCHAR
STARTCHAR C0071
ENCODING -1 113
SWIDTH 471 0
DWIDTH 8 0
BBX 16 17 0 -17
BITMAP
0000
0000
0000
0000
3400
4E00
CC00
CC00
CC00
CC00
7C00
0C00
0C00
1E00
0000
0000
0000
ENDCHAR
STARTCHAR C0072
ENCODING -1 114
SWIDTH 412 0
DWIDTH 7 0
BBX 16 17 0 -17
BITMAP
0000
0000
0000
0000
5C00
EC00
6000
6000
6000
6000
F000
0000
0000
0000
0000
0000
0000
ENDCHAR
STARTCHAR C0073
ENCODING -1 115
SWIDTH 353 0
DWIDTH 6 0
BBX 16 17 0 -17
BITMAP
0000
0000
0000
0000
7000
D800
6000
3000
1800
D800
7000
0000
0000
0000
0000
0000
0000
ENDCHAR
STARTCHAR C0074
ENCODING -1 116
SWIDTH 294 0
DWIDTH 5 0
BBX 16 17 0 -17
BITMAP
0000
0000
2000
6000
F000
6000
6000
6000
6000
6800
3000
0000
0000
0000
0000
0000
0000
ENDCHAR
STARTCHAR C0075
ENCODING -1 117
SWIDTH 471 0
DWIDTH 8 0
BBX 16 17 0 -17
BITMAP
0000
0000
0000
0000
EF00
6600
6600
6600
6600
6600
3B00
0000
0000
0000
0000
0000
0000
ENDCHAR
STARTCHAR C0076
ENCODING -1 118
SWIDTH 529 0
DWIDTH 9 0
BBX 16 17 0 -17
BITMAP
0000
0000
0000
0000
F780
6300
3600
3600
1C00
1C00
0800
0000
0000
0000
0000
0000
0000
ENDCHAR
STARTCHAR C0077
ENCODING -1 119
SWIDTH 765 0
DWIDTH 13 0
BBX 16 17 0 -17
BITMAP
0000
0000
0000
0000
F278
6230
3760
3760
1DC0
1DC0
0880
0000
0000
0000
0000
0000
0000
ENDCHAR
STARTCHAR C0078
ENCODING -1 120
SWIDTH 471 0
DWIDTH 8 0
BBX 16 17 0 -17
BITMAP
0000
0000
0000
0000
F700
6600
3C00
1800
3C00
6600
EF00
0000
0000
0000
0000
0000
0000
ENDCHAR
STARTCHAR C0079
ENCODING -1 121
SWIDTH 529 0
DWIDTH 9 0
BBX 16 17 0 -17
BITMAP
0000
0000
0000
0000
F780
6300
3600
3600
1C00
1C00
0800
0800
D800
7000
0000
0000
0000
ENDCHAR
STARTCHAR C007A
ENCODING -1 122
SWIDTH 471 0
DWIDTH 8 0
BBX 16 17 0 -17
BITMAP
0000
0000
0000
0000
3F00
4600
0C00
1800
3000
6100
FE00
0000
0000
0000
0000
0000
0000
ENDCHAR
STARTCHAR C007B
ENCODING -1 123
SWIDTH 471 0
DWIDTH 8 0
BBX 16 17 0 -17
BITMAP
0E00
1800
1800
1800
1800
7000
7000
1800
1800
1800
1800
0E00
0000
0000
0000
0000
0000
ENDCHAR
STARTCHAR C007C
ENCODING -1 124
SWIDTH 118 0
DWIDTH 2 0
BBX 16 17 0 -17
BITMAP
C000
C000
4000
8000
0000
0000
0000
0000
0000
0000
0000
0000
0000
0000
0000
0000
0000
ENDCHAR
STARTCHAR C007D
ENCODING -1 125
SWIDTH 471 0
DWIDTH 8 0
BBX 16 17 0 -17
BITMAP
7000
1800
1800
1800
1800
0E00
0E00
1800
1800
1800
1800
7000
0000
0000
0000
0000
0000
ENDCHAR
STARTCHAR C007E
ENCODING -1 126
SWIDTH 471 0
DWIDTH 8 0
BBX 16 17 0 -17
BITMAP
0000
3C00
6600
6600
0600
0C00
1800
1800
0000
1800
1800
0000
0000
0000
0000
0000
0000
ENDCHAR
STARTCHAR C007F
ENCODING -1 127
SWIDTH 941 0
DWIDTH 16 0
BBX 16 17 0 -17
BITMAP
0003
0007
000F
001F
00BE
01FC
13F8
37F0
3EE0
7CC0
7880
D000
8000
0000
0000
0000
0000
ENDCHAR
ENDFONT
